<svg width="23" height="62" viewBox="0 0 23 62" fill="none" xmlns="http://www.w3.org/2000/svg">
<path d="M5.24242 47H17.7576C20.1006 47 22 48.8994 22 51.2424V55.9091C22 58.7207 19.7207 61 16.9091 61H6.09091C3.27928 61 1 58.7207 1 55.9091V51.2424C1 48.8994 2.8994 47 5.24242 47Z" fill="white"/>
<path d="M22 51.2424V51.2424C22 48.8994 20.1006 47 17.7576 47H5.24242C2.8994 47 1 48.8994 1 51.2424V51.2424M22 51.2424H1M22 51.2424V55.9091M1 51.2424V55.9091M22 55.9091H2.29231H1M22 55.9091V55.9091C22 58.7207 19.7207 61 16.9091 61H6.09091C3.27928 61 1 58.7207 1 55.9091V55.9091" stroke="#131313"/>
<path d="M7 1L7 51H10L10 1L7 1Z" fill="white" stroke="#131313"/>
</svg>
