<svg width="208" height="280" viewBox="0 0 208 280" fill="none" xmlns="http://www.w3.org/2000/svg">
<path d="M1 246.5L32.5 195H175.5L207 246.5V279H1V246.5Z" fill="#131313"/>
<path d="M1 246.5L32.5 195H175.5L207 246.5M1 246.5V279H207V246.5M1 246.5H207" stroke="white"/>
<path d="M157.79 145.074L154.932 105.137C154.737 102.403 152.983 100.026 150.429 99.0322C145.597 97.1518 140.446 100.921 140.776 106.096L143.331 146.054C143.575 149.876 146.752 152.848 150.582 152.838C154.78 152.826 158.09 149.261 157.79 145.074Z" fill="#131313" stroke="white"/>
<path d="M132.753 148.088L142.07 109.148C142.708 106.482 141.753 103.687 139.618 101.969C135.577 98.719 129.529 100.76 128.284 105.793L118.671 144.662C117.752 148.38 119.884 152.171 123.54 153.316C127.545 154.571 131.776 152.17 132.753 148.088Z" fill="#131313" stroke="white"/>
<path d="M174.451 95.3552L153.17 74.0083C151.729 72.5631 149.581 72.0847 147.663 72.7821C144.076 74.0865 143.039 78.6632 145.713 81.3864L166.833 102.892C168.838 104.934 172.093 105.04 174.226 103.133C176.519 101.085 176.621 97.5322 174.451 95.3552Z" fill="#131313" stroke="white"/>
<path d="M115.095 101.24L138.512 82.2606C140.097 80.9756 140.794 78.8878 140.297 76.9085C139.367 73.2066 134.921 71.7056 131.938 74.0864L108.379 92.8892C106.143 94.674 105.703 97.9009 107.381 100.219C109.183 102.709 112.707 103.175 115.095 101.24Z" fill="#131313" stroke="white"/>
<path d="M156 105V87C156 79.268 149.732 73 142 73C134.268 73 128 79.268 128 87V105C128 112.732 134.268 119 142 119C149.732 119 156 112.732 156 105Z" fill="#131313" stroke="white"/>
<path d="M135.242 61H147.758C150.101 61 152 62.8994 152 65.2424V69.9091C152 72.7207 149.721 75 146.909 75H136.091C133.279 75 131 72.7207 131 69.9091V65.2424C131 62.8994 132.899 61 135.242 61Z" fill="#131313"/>
<path d="M152 65.2424V65.2424C152 62.8994 150.101 61 147.758 61H135.242C132.899 61 131 62.8994 131 65.2424V65.2424M152 65.2424H131M152 65.2424V69.9091M131 65.2424V69.9091M152 69.9091H132.292H131M152 69.9091V69.9091C152 72.7207 149.721 75 146.909 75H136.091C133.279 75 131 72.7207 131 69.9091V69.9091" stroke="white"/>
<path d="M137 15V65H140V15H137Z" fill="#131313" stroke="white"/>
<path d="M150.21 51H151.626C154.976 51 158.297 52.3205 160.224 55.0614C163.786 60.1254 164.06 64.3848 160.231 70.446C158.319 73.4728 154.809 75 151.229 75H149.86C143.512 75 138.737 69.507 138.81 63.1594C138.885 56.6879 143.738 51 150.21 51Z" fill="#131313" stroke="white"/>
<path d="M114.123 1L49 66.1234L57.6596 74.783L122.783 9.6596L114.123 1Z" fill="#131313" stroke="white"/>
<path d="M52.5 16L161.5 16C165.642 16 169 12.6421 169 8.5C169 4.35787 165.642 1 161.5 1L52.5 1C48.3579 1 45 4.35787 45 8.5C45 12.6421 48.3579 16 52.5 16Z" fill="#131313" stroke="white"/>
<path d="M32 13V204H58V1H44C37.3726 1 32 6.37259 32 13Z" fill="#131313" stroke="white"/>
<path d="M156 90.5V85.5L154 80L153 79L152 77.5" stroke="#131313" stroke-width="5"/>
<path d="M138 118.5L131 113.5L130 112.5V111L135 118.5" stroke="#131313" stroke-width="2"/>
<path d="M138.5 119V118L137 120.5L137.5 121L139.5 117.5L143 118V119V119.5L147 118L150.5 116L153 113.5L154 112V111.5V109.5V108" stroke="#131313" stroke-width="2"/>
<path d="M128 113L128.4 112M128.4 112L130 108L129.5 107.5L128.4 112Z" stroke="#131313" stroke-width="2"/>
<path d="M128 90L128.5 81.5L134 75.5" stroke="#131313" stroke-width="2"/>
<path d="M137 76.5H131.5V76" stroke="#131313" stroke-width="2"/>
<path d="M139.459 77.4661C139.214 77.4661 138.96 77.4873 138.718 77.4405C138.29 77.3572 137.855 77.2097 137.415 77.2097C137.255 77.2097 137.086 77.1484 136.932 77.1072C136.676 77.0387 136.428 77.0281 136.164 77.0046C135.914 76.9824 135.734 76.816 135.488 76.7796C135.379 76.7634 135.28 76.7142 135.17 76.7012C135.105 76.6935 135.026 76.716 134.972 76.6699C134.808 76.5294 134.643 76.3124 134.407 76.3124C134.005 76.3124 133.672 75.9841 133.401 75.7127C133.355 75.667 133.303 75.6104 133.26 75.5631C133.226 75.5251 133.494 75.4977 133.533 75.4933C133.637 75.4819 133.689 75.5383 133.761 75.603C133.798 75.6363 133.851 75.6288 133.894 75.65C133.951 75.6785 133.979 75.755 134.023 75.7996C134.112 75.8882 134.23 75.9534 134.357 75.9534C134.431 75.9534 134.465 75.9208 134.525 75.9036C134.56 75.8935 134.602 75.9309 134.633 75.942C134.694 75.9643 134.769 75.9534 134.833 75.9534C134.86 75.9534 134.987 75.9534 134.966 75.9534C134.849 75.9534 134.731 75.9534 134.613 75.9534C134.417 75.9534 134.311 75.9518 134.137 75.8623C134.061 75.8232 133.984 75.7596 133.922 75.6985C133.866 75.6424 133.801 75.506 133.716 75.4919C133.658 75.4823 133.649 75.4875 133.72 75.5446C133.835 75.6367 133.975 75.6164 134.112 75.6201C134.228 75.6233 134.286 75.679 134.381 75.7326C134.449 75.7709 134.54 75.7356 134.613 75.754C134.748 75.7877 134.894 75.7819 135.023 75.8252" stroke="#131313" stroke-linecap="round"/>
<path d="M127.364 89.5649C127.391 89.5943 127.411 89.6389 127.43 89.6746C127.449 89.7133 127.463 89.7529 127.5 89.7755C127.532 89.7948 127.561 89.7954 127.599 89.7954C127.609 89.7954 127.625 89.7985 127.634 89.7945C127.646 89.7891 127.661 89.7838 127.674 89.7834C127.732 89.7817 127.791 89.7783 127.849 89.7673C127.874 89.7625 127.9 89.7517 127.926 89.7517C127.96 89.7517 127.999 89.7849 128.029 89.8011C128.052 89.8134 128.087 89.8311 128.115 89.8311C128.155 89.8311 128.188 89.8593 128.226 89.8631C128.246 89.8652 128.278 89.8614 128.294 89.8739C128.321 89.8946 128.356 89.8955 128.388 89.8987C128.404 89.9003 128.424 89.9115 128.441 89.915C128.463 89.9195 128.486 89.9286 128.506 89.9382C128.527 89.948 128.551 89.9539 128.573 89.9618C128.589 89.9675 128.606 89.9629 128.623 89.9706C128.635 89.9762 128.647 89.9844 128.659 89.9909C128.67 89.9973 128.68 90.0133 128.694 90.0139C128.705 90.0143 128.712 90.0164 128.721 90.0227C128.734 90.0307 128.733 90.0308 128.748 90.0346C128.779 90.0425 128.796 90.0731 128.822 90.0876C128.847 90.1016 128.855 90.1092 128.885 90.1092" stroke="#131313" stroke-linecap="round"/>
<path d="M128.993 90.5502C128.97 90.5382 128.957 90.5242 128.943 90.5034C128.932 90.4875 128.911 90.4686 128.909 90.4489C128.908 90.435 128.901 90.4239 128.901 90.4094C128.901 90.3915 128.9 90.3733 128.901 90.3555C128.904 90.3079 128.91 90.259 128.873 90.2204C128.85 90.196 128.827 90.174 128.798 90.1567C128.782 90.1472 128.766 90.1362 128.751 90.1253C128.742 90.1188 128.729 90.1172 128.721 90.1105C128.701 90.0936 128.672 90.0723 128.658 90.0496C128.646 90.0293 128.616 90.013 128.597 89.9991C128.567 89.977 128.543 89.9547 128.51 89.9375C128.473 89.9181 128.447 89.8805 128.415 89.8534C128.381 89.8249 128.349 89.8113 128.305 89.8113C128.267 89.8113 128.232 89.8033 128.194 89.8033C128.145 89.8033 128.102 89.8001 128.055 89.7914C128.008 89.7827 127.959 89.7839 127.911 89.7834C127.869 89.783 127.829 89.7755 127.787 89.7755C127.753 89.7755 127.721 89.7834 127.688 89.7834C127.674 89.7834 127.664 89.7918 127.652 89.7973C127.637 89.8041 127.623 89.7952 127.609 89.8082C127.586 89.8305 127.549 89.8138 127.52 89.8223C127.491 89.8305 127.471 89.8375 127.445 89.853C127.434 89.8597 127.423 89.8613 127.418 89.8739C127.413 89.8876 127.388 89.9049 127.388 89.9165C127.388 89.9239 127.371 89.934 127.368 89.9437C127.365 89.9508 127.36 89.9616 127.365 89.9702C127.376 89.9919 127.403 89.9965 127.411 90.0218" stroke="#131313" stroke-linecap="round"/>
<path d="M127.507 90.0139C127.552 90.0132 127.591 89.9992 127.635 89.9909C127.656 89.987 127.68 89.99 127.701 89.99C127.75 89.99 127.798 89.99 127.846 89.99C127.936 89.99 128.02 89.9721 128.109 89.9702C128.143 89.9694 128.184 89.9668 128.216 89.983C128.253 90.0025 128.292 90.0323 128.318 90.0655C128.331 90.0818 128.356 90.0884 128.372 90.1044C128.384 90.1166 128.4 90.1252 128.416 90.13C128.451 90.1399 128.496 90.1486 128.52 90.1767" stroke="#131313" stroke-linecap="round"/>
<path d="M142.963 120.114C142.963 120.019 142.92 119.974 142.871 119.889C142.755 119.686 142.671 119.467 142.569 119.257C142.509 119.133 142.44 119.009 142.369 118.89C142.301 118.776 142.218 118.665 142.133 118.562C142.119 118.545 142.107 118.525 142.089 118.512C141.979 118.43 141.876 118.342 141.757 118.271C141.712 118.244 141.677 118.209 141.629 118.187C141.567 118.159 141.511 118.115 141.446 118.093C141.347 118.059 141.221 118.029 141.117 118.029" stroke="#131313" stroke-linecap="round"/>
<path d="M143.086 121.303C143.013 121.288 142.953 121.212 142.877 121.206C142.863 121.205 142.86 121.198 142.851 121.19C142.845 121.185 142.83 121.187 142.821 121.18C142.808 121.17 142.796 121.158 142.782 121.15C142.77 121.142 142.757 121.147 142.744 121.141C142.688 121.114 142.665 121.083 142.665 121.018C142.665 120.993 142.648 120.97 142.639 120.947C142.634 120.933 142.634 120.921 142.627 120.906C142.622 120.896 142.609 120.881 142.608 120.869C142.605 120.842 142.586 120.824 142.58 120.797C142.576 120.773 142.596 120.816 142.599 120.821C142.619 120.858 142.636 120.899 142.642 120.944C142.644 120.961 142.648 120.998 142.641 121.012C142.627 121.038 142.6 120.995 142.596 120.986C142.588 120.972 142.571 120.964 142.568 120.947C142.565 120.932 142.565 120.919 142.556 120.905C142.546 120.888 142.529 120.866 142.511 120.858" stroke="#131313" stroke-linecap="round"/>
<path d="M139.448 118.112C139.543 118.169 139.612 118.176 139.718 118.176C139.786 118.176 139.855 118.176 139.923 118.176C139.972 118.176 140.021 118.176 140.07 118.176C140.094 118.176 140.119 118.183 140.09 118.206C140.033 118.25 139.989 118.305 139.929 118.346C139.889 118.374 139.856 118.421 139.823 118.456C139.794 118.488 139.77 118.489 139.735 118.512C139.694 118.54 139.656 118.576 139.612 118.6C139.591 118.612 139.565 118.608 139.542 118.615C139.516 118.623 139.503 118.643 139.525 118.598C139.586 118.469 139.785 118.4 139.903 118.341C139.999 118.293 140.094 118.292 140.199 118.273C140.346 118.245 140.489 118.205 140.639 118.204C140.778 118.203 140.914 118.234 141.053 118.241C141.18 118.247 141.271 118.266 141.385 118.319C141.453 118.35 141.522 118.378 141.592 118.403C141.646 118.423 141.706 118.478 141.753 118.512C141.781 118.532 141.81 118.549 141.833 118.576C141.869 118.62 141.921 118.647 141.961 118.688C142.004 118.732 142.043 118.789 142.094 118.825C142.124 118.847 142.156 118.86 142.188 118.878C142.24 118.907 142.278 118.951 142.331 118.979C142.372 119 142.388 119.06 142.401 119.1C142.411 119.128 142.43 119.146 142.44 119.176C142.458 119.228 142.444 119.299 142.445 119.352C142.449 119.471 142.523 119.591 142.565 119.698" stroke="#131313" stroke-linecap="round"/>
<path d="M142.464 119.191C142.429 119.174 142.398 119.164 142.362 119.154" stroke="#131313" stroke-linecap="round"/>
<path d="M142.289 119.062C142.268 119.07 142.247 119.08 142.224 119.08" stroke="#131313" stroke-linecap="round"/>
<path d="M142.796 120.777C142.767 120.814 142.756 120.841 142.743 120.885C142.735 120.911 142.748 120.941 142.736 120.966C142.704 121.04 142.708 121.122 142.658 121.195C142.649 121.207 142.606 121.275 142.597 121.248C142.574 121.182 142.593 121.081 142.593 121.011C142.593 120.962 142.597 120.904 142.575 120.86" stroke="#131313" stroke-linecap="round"/>
<path d="M156.825 90.0833C156.72 90.0833 156.625 90.1176 156.526 90.151C156.456 90.1746 156.392 90.207 156.318 90.2168C156.24 90.2273 156.16 90.2426 156.082 90.25C155.979 90.2597 155.883 90.2872 155.784 90.3181C155.747 90.3299 155.708 90.3467 155.669 90.3495C155.631 90.3522 155.595 90.3501 155.559 90.3626C155.471 90.3934 155.387 90.4297 155.306 90.4761C155.286 90.4873 155.33 90.5074 155.334 90.5092C155.382 90.5301 155.435 90.5364 155.487 90.5424C155.636 90.5598 155.785 90.5699 155.935 90.5747C156.116 90.5805 156.306 90.5818 156.485 90.586C156.522 90.5869 156.582 90.5735 156.613 90.5943C156.687 90.6434 156.77 90.6802 156.837 90.7383C156.852 90.7517 156.869 90.7608 156.88 90.7789C156.901 90.813 156.759 90.8636 156.745 90.8697C156.643 90.9165 156.54 90.9732 156.432 91.0045C156.38 91.0195 156.318 91.0091 156.265 91.0106C156.112 91.015 155.959 91.0402 155.808 91.0635C155.724 91.0763 155.636 91.1017 155.551 91.1045C155.549 91.1046 155.515 91.1073 155.531 91.1184C155.542 91.1258 155.577 91.1202 155.587 91.1202C155.68 91.1202 155.773 91.1202 155.866 91.1202C155.938 91.1202 156.047 91.1003 156.119 91.128C156.164 91.1453 156.222 91.1359 156.269 91.1359C156.315 91.1359 156.355 91.1516 156.401 91.1516C156.428 91.1516 156.439 91.1478 156.448 91.1752" stroke="#131313" stroke-linecap="round"/>
<path d="M152.277 79.926C152.312 79.7123 152.206 79.513 152.134 79.3149C152.006 78.9618 151.847 78.6021 151.667 78.2726C151.603 78.1568 151.474 77.9995 151.438 77.8778C151.405 77.7611 151.341 77.5796 151.24 77.5042C150.96 77.2938 150.602 77.2502 150.29 77.0942C150.192 77.0451 150.094 77.0816 150.001 77.0065C149.92 76.9402 150.053 76.9336 150.092 76.9324C150.472 76.9201 150.853 76.9344 151.233 76.9172C151.39 76.9102 151.598 76.8682 151.753 76.9308C151.82 76.9581 151.878 77.0179 151.941 77.0564C152.163 77.194 152.344 77.371 152.614 77.4179C152.683 77.43 152.766 77.5106 152.706 77.3937C152.606 77.1965 152.378 77.0551 152.204 76.9293C152.077 76.8376 151.939 76.77 151.805 76.6918C151.714 76.6392 151.653 76.5614 151.553 76.5224C151.45 76.4817 151.415 76.4407 151.296 76.4407C150.793 76.4407 150.292 76.4135 149.79 76.4135C149.384 76.4135 148.992 76.359 148.587 76.359C148.516 76.359 148.257 76.368 148.483 76.3379C148.748 76.3025 149.003 76.2185 149.26 76.1473C149.359 76.12 149.515 76.102 149.605 76.0459C149.706 75.9831 149.862 76.1412 149.976 76.1412C150.103 76.1412 150.23 76.1412 150.357 76.1412C150.44 76.1412 150.482 76.1646 150.54 76.2169C150.573 76.2463 150.697 76.2229 150.738 76.2229C150.884 76.2229 151.03 76.2229 151.175 76.2229C151.3 76.2229 150.925 76.2229 150.8 76.2229C150.744 76.2229 150.576 76.2229 150.632 76.2229C150.726 76.2229 150.821 76.2229 150.915 76.2229C151.041 76.2229 151.16 76.206 151.284 76.1942C151.51 76.1727 151.257 75.9588 151.178 75.9143C151.089 75.8642 150.938 75.8143 150.832 75.8462C150.733 75.8758 150.688 75.9195 150.582 75.9234C150.427 75.9291 150.246 75.9432 150.092 75.9718C149.706 76.0437 149.323 76.0868 148.927 76.0868C148.857 76.0868 148.645 76.0868 148.716 76.0868C148.798 76.0868 148.873 76.1369 148.955 76.1412C149.045 76.146 149.11 76.1449 149.172 76.0716C149.184 76.0576 149.351 75.9257 149.33 75.9022C149.277 75.8423 148.919 75.8962 148.831 75.8962C148.762 75.8962 148.581 75.9229 148.619 76.0323C148.643 76.1015 148.934 76.2314 149.003 76.2441C149.245 76.2885 149.577 76.2716 149.814 76.229C149.98 76.1991 149.963 75.9921 149.892 75.875C149.884 75.8607 150.271 75.8181 150.343 75.8145C150.479 75.8077 150.616 75.8145 150.752 75.8145" stroke="#131313" stroke-linecap="round"/>
<path d="M62.5842 203.924C62.1642 204.44 61.5562 204.279 60.9351 204.279C60.2928 204.279 59.6304 204.241 58.9897 204.19C58.6567 204.164 58.4431 203.867 58.101 203.84C57.841 203.819 57.7506 203.8 57.5183 203.696C57.0745 203.499 56.5518 203.403 56.0963 203.193C55.5777 202.953 55.0771 203.095 54.5262 203.015C53.6644 202.89 52.8531 202.846 51.9785 202.857C51.5863 202.862 51.2315 202.998 50.8478 203.03C50.4579 203.062 50.0769 203.039 49.6875 203.104C49.513 203.133 48.3446 203.522 48.4926 203.657C48.9516 204.074 49.8734 204.082 50.4429 204.096C51.2173 204.116 51.9938 204.101 52.7685 204.101C53.5683 204.101 54.3682 204.101 55.1681 204.101C55.5201 204.101 59.3288 203.783 59.3057 203.983C59.2655 204.331 58.161 204.562 57.9035 204.63C57.0146 204.863 56.0878 204.805 55.178 204.812C54.871 204.815 54.5251 204.794 54.2892 205.03C53.8904 205.428 55.1577 204.31 55.6026 203.963C56.4058 203.337 57.2045 202.775 57.9627 202.097C58.3575 201.743 58.7143 202.668 58.7428 202.897C58.7915 203.286 58.7626 203.69 58.7626 204.082C58.7626 204.407 58.4732 203.499 58.3182 203.213C57.982 202.592 57.8726 201.878 57.7356 201.193C57.7115 201.073 57.4164 200.03 57.5776 200.359C58.2833 201.798 58.4233 203.36 58.6737 204.921C58.7712 205.529 58.599 204.804 58.496 204.58C58.1922 203.922 58.1537 203.195 58.1405 202.482C58.1218 201.473 57.9519 200.514 57.7504 199.529C57.5904 198.747 58.3049 200.818 58.3281 200.882C58.3648 200.983 59.0686 202.795 58.6638 201.87C58.3792 201.219 58.4292 200.603 58.3873 199.904C58.3552 199.369 58.2933 198.822 58.1454 198.305C58.0929 198.121 58.1405 198.687 58.1602 198.877C58.2434 199.678 58.3182 202.092 58.3182 201.287C58.3182 200.473 57.9466 199.667 57.8936 198.838C57.887 198.734 57.8738 197.858 57.8738 198.033C57.8738 198.399 58.061 198.702 58.1405 199.055C58.1948 199.297 58.3182 200.78 58.3182 199.825C58.3182 199.25 58.2826 198.69 58.2293 198.117C58.2056 197.862 58.0269 197.114 58.1108 197.357C58.2511 197.762 58.4145 198.169 58.5305 198.581C58.5723 198.73 58.7271 199.17 58.5848 198.769C58.3829 198.199 58.2293 197.827 58.2293 197.189C58.2293 197.019 58.3093 196.577 58.1898 196.458C57.8348 196.103 58.0516 196.602 58.0516 196.814" stroke="#131313" stroke-linecap="round"/>
<path d="M58.0516 196.814C58.0516 197.619 58.0986 198.447 58.0466 199.253C57.9909 200.117 57.7321 201.048 57.4739 201.874C57.2952 202.446 57.2647 203.041 57.1628 203.627C57.0847 204.077 57.074 204.516 57.074 204.97C57.074 205.137 57.0393 205.354 56.8567 205.099C56.459 204.544 56.5407 203.835 56.5407 203.193C56.5407 202.443 56.5246 201.691 56.5407 200.941C56.5478 200.614 56.7013 200.331 56.7185 200.013C56.7337 199.73 56.7263 199.505 56.8271 199.233C57.0577 198.61 57.6961 198.573 57.6961 197.88C57.6961 197.572 57.6961 197.265 57.6961 196.957C57.6961 196.719 57.5183 196.555 57.5183 196.34C57.5183 196.27 57.5084 196.484 57.5381 196.547C57.5887 196.654 57.7124 196.708 57.7652 196.814C57.8849 197.053 58.022 197.109 58.2985 196.883C58.3599 196.832 58.5834 196.65 58.496 196.636C58.2275 196.591 57.9347 196.4 57.6961 196.28" stroke="#131313" stroke-linecap="round"/>
<path d="M59.3434 196.293C59.2297 196.293 59.1005 196.289 58.99 196.263C58.9578 196.255 58.9348 196.239 58.9016 196.238C58.8531 196.237 58.7902 196.232 58.7427 196.221C58.672 196.206 58.5658 196.243 58.5046 196.205C58.4638 196.179 58.3869 196.183 58.3383 196.183C58.1773 196.183 58.0067 196.172 57.8419 196.172C57.7666 196.172 57.6913 196.172 57.6161 196.172C57.5907 196.172 57.5152 196.177 57.54 196.171C57.5763 196.163 57.618 196.158 57.6504 196.139C57.6712 196.127 57.6753 196.117 57.7001 196.117C57.8332 196.117 57.9733 196.121 58.1008 196.082C58.1517 196.067 58.1959 196.067 58.2493 196.056C58.2963 196.046 58.3568 196.028 58.4033 196.028C58.4351 196.028 58.4668 196.028 58.4985 196.028C58.5606 196.028 58.475 196.006 58.4512 196.006C58.1398 196.006 57.833 196.017 57.5209 196.017" stroke="#131313" stroke-linecap="round"/>
<path d="M55.9981 203.752C55.764 203.954 55.4513 203.932 55.1559 203.937C54.7637 203.945 54.3754 204.012 53.9836 204.012C53.5461 204.012 53.1222 203.985 52.6873 203.946C52.1638 203.898 51.6592 203.82 51.1393 203.752C50.8115 203.709 50.4789 203.681 50.1485 203.677C49.6052 203.672 48.9594 203.731 48.4312 203.595C48.3506 203.574 48.3054 203.532 48.4147 203.529C48.6152 203.523 48.8169 203.529 49.0174 203.529C49.8417 203.529 50.6659 203.529 51.4902 203.529C52.1892 203.529 52.8882 203.529 53.5873 203.529C54.355 203.529 55.123 203.523 55.8908 203.529C56.2282 203.531 55.7865 203.662 55.6926 203.677C51.2131 204.414 46.6779 204.495 42.1482 204.495C41.0838 204.495 40.0195 204.495 38.9551 204.495C38.8129 204.495 38.6361 204.519 38.4927 204.491C38.4162 204.475 38.1351 204.434 38.0964 204.363C38.0268 204.235 38.1758 204.124 38.2719 204.088C38.8191 203.882 39.475 203.876 40.0511 203.865C40.5394 203.856 41.0283 203.863 41.5166 203.863C42.7012 203.863 43.8758 203.937 45.0585 203.937C46.1718 203.937 47.285 203.937 48.3982 203.937C48.4139 203.937 48.7439 203.934 48.6252 203.966C48.2438 204.069 47.8526 204.049 47.4611 204.049C44.6072 204.049 41.7533 204.049 38.8994 204.049C37.3135 204.049 35.7276 204.049 34.1417 204.049C33.7991 204.049 33.4564 204.049 33.1138 204.049C32.8666 204.049 32.6624 203.826 32.4079 203.826C32.2172 203.826 32.0638 203.813 32.0157 204.034C31.9946 204.132 31.9868 204.245 31.9992 204.344C32.0107 204.436 31.9857 204.324 31.9744 204.29C31.9101 204.102 31.8853 203.908 31.8692 203.71C31.8615 203.617 31.7817 202.807 31.9249 203.201C32.0018 203.412 32.0464 203.64 32.1437 203.843C32.2478 204.059 32.3514 204.193 32.5297 204.361C32.5395 204.37 32.6512 204.504 32.6824 204.487C32.7506 204.448 32.703 204.067 32.703 204.008C32.703 203.734 32.703 203.46 32.703 203.186C32.703 202.9 32.7898 203.095 32.8806 203.269C33.0759 203.643 33.246 204.107 33.6773 203.69C33.8637 203.509 34.0144 203.243 34.3006 203.232C34.645 203.218 35.0167 203.205 35.3574 203.256C35.9918 203.352 36.593 203.605 37.2275 203.706C37.8367 203.803 38.4506 203.9 39.0686 203.9C39.3269 203.9 39.7523 203.822 40.0036 203.919C40.1981 203.994 39.7142 204.076 39.6631 204.086C38.3521 204.354 36.9282 204.235 35.601 204.235C34.6367 204.235 33.6713 204.249 32.7072 204.229C32.394 204.222 31.8509 204.277 31.5657 204.072C31.4881 204.016 31.3784 203.947 31.3676 203.845C31.3575 203.749 31.3203 203.459 31.4027 203.417" stroke="#131313" stroke-linecap="round"/>
<path d="M31.9015 203.52C31.8327 203.397 31.8376 203.266 31.8261 203.127C31.8118 202.954 31.8217 202.776 31.8217 202.602C31.8217 202.402 31.8128 202.213 31.8938 202.023C31.9549 201.88 31.9915 201.797 32.0024 201.644C32.0111 201.522 32.0177 201.399 32.0523 201.283C32.0919 201.149 32.0748 200.994 32.0822 200.857C32.0936 200.647 32.1386 200.436 32.1565 200.225C32.1758 199.998 32.2238 199.779 32.2452 199.553C32.2493 199.51 32.3167 199.102 32.3527 199.18C32.4455 199.38 32.4894 199.618 32.5401 199.83C32.6683 200.367 32.7499 200.917 32.7907 201.467C32.8158 201.806 32.8195 202.146 32.8195 202.487C32.8195 202.695 32.8318 202.907 32.8084 203.114C32.7846 203.325 32.703 203.509 32.58 203.68C32.4995 203.791 32.4815 203.895 32.3683 203.765C32.1372 203.5 32.0894 203.058 32.0457 202.726C32.0046 202.414 31.9527 202.127 31.8605 201.827C31.8081 201.657 31.7415 201.49 31.6931 201.318C31.6639 201.215 31.6576 201.111 31.6332 201.008C31.5908 200.828 31.6022 200.648 31.6022 200.462C31.6022 200.087 31.5623 199.723 31.5623 199.348C31.5623 199.26 31.5669 199.193 31.6111 199.113C31.6552 199.033 31.6511 198.958 31.682 198.875C31.706 198.81 31.7172 198.735 31.7707 198.691C31.8314 198.641 31.8232 198.544 31.8461 198.476C31.871 198.401 31.9322 198.354 31.9426 198.271C31.9518 198.197 32.0133 198.169 32.0368 198.108C32.065 198.034 32.1152 197.966 32.1399 197.893C32.1594 197.834 32.1518 197.773 32.1964 197.728C32.2952 197.63 32.3597 197.518 32.4703 197.441C32.5856 197.361 32.7227 197.186 32.7696 197.054C32.8024 196.962 32.8542 196.889 32.8838 196.795C32.9011 196.74 32.9658 196.668 32.9991 196.614C33.0239 196.575 33.0449 196.436 33.0789 196.42C33.1368 196.393 33.1188 196.61 33.1188 196.635C33.1188 196.859 33.1183 197.078 33.0878 197.299C33.0631 197.478 33.0513 197.666 32.9969 197.839C32.9362 198.032 32.828 198.192 32.7219 198.36C32.6615 198.456 32.618 198.542 32.5412 198.629C32.4523 198.729 32.3649 198.826 32.2696 198.921C32.1323 199.059 32.0382 198.898 31.9802 198.778C31.9503 198.717 31.8839 198.661 31.8616 198.6C31.8351 198.527 31.8143 198.485 31.7663 198.42C31.7032 198.335 31.7527 198.111 31.8417 198.057C31.9322 198.001 31.9773 197.898 32.0401 197.814C32.0806 197.76 32.1336 197.696 32.1853 197.653C32.2564 197.594 32.2798 197.537 32.3306 197.463C32.4646 197.27 32.5855 197.092 32.7441 196.919C32.9058 196.743 32.9937 196.517 33.1388 196.336" stroke="#131313" stroke-linecap="round"/>
<path d="M65.2898 61.7525C62.5567 63.5983 59.5615 65.1908 57.0174 67.2844C55.9387 68.1721 55.1747 69.1851 54.3403 70.2977C54.2806 70.3773 53.8144 70.9863 54.0231 71.0907C54.3007 71.2295 55.0209 70.6427 55.203 70.5261C55.8763 70.0952 56.536 69.6725 57.2521 69.3144C58.0733 68.9038 58.9935 68.4126 59.5803 67.6904C59.6982 67.5453 60.8325 66.3362 60.9252 66.6246C61.1975 67.4718 60.2972 68.4979 59.7833 69.0353C59.6356 69.1897 58.8049 70.262 58.4384 70.0884C57.6039 69.6931 59.4301 67.378 59.6945 67.0687C60.2034 66.4735 60.7366 65.9065 61.2931 65.3558C61.6908 64.9625 61.6744 65.1377 61.4327 65.4954C60.6419 66.6658 59.8852 67.8603 59.0918 69.0289C58.4229 70.0143 57.6767 70.943 56.9984 71.9217C56.6833 72.3763 56.3981 72.9153 56.0024 73.311C55.6293 73.6841 55.6944 72.7603 55.7106 72.6069C55.8256 71.5138 56.9033 70.6578 57.7913 70.1645C58.0039 70.0464 58.6765 69.5174 58.8952 69.5174C59.2674 69.5174 58.7908 70.7366 58.7302 70.8496C58.3044 71.6451 57.6257 72.2685 57.2458 73.0827C57.2156 73.1473 56.9754 73.4108 57.1316 73.3491C57.6698 73.1363 58.124 72.791 58.5843 72.4483C58.8807 72.2275 59.5922 71.38 59.3963 71.6934C59.3602 71.7513 58.9909 72.022 58.9396 72.0105C58.4917 71.911 58.2417 71.1761 58.1339 70.8242C57.7272 69.4972 57.3218 68.1693 57.0681 66.8022C56.9797 66.3258 56.7498 65.7653 56.7256 65.2924C56.6885 64.5691 56.7256 63.834 56.7256 63.1101C56.7256 63.0411 56.7277 61.5049 57.0174 62.1712C57.486 63.2491 57.7223 64.5047 57.9182 65.654C58.1286 66.8882 58.4384 68.2171 58.4384 69.473C58.4384 70.2914 58.4384 67.8363 58.4384 67.0179C58.4384 66.0262 58.4384 65.0344 58.4384 64.0427C58.4384 64.0068 58.4384 63.4856 58.4384 63.7318C58.4384 64.8313 58.4495 65.9313 58.4384 67.0306C58.4253 68.3282 58.2648 66.466 58.2608 66.4089C58.1855 65.3456 58.21 64.2767 58.21 63.2116C58.21 62.2431 58.21 61.2746 58.21 60.3061C58.21 59.7639 58.21 60.5192 58.21 60.5853C58.21 61.7398 58.21 62.8944 58.21 64.049C58.21 64.3325 58.4614 64.9606 58.1847 64.8991C57.9818 64.854 57.9909 63.7222 57.9817 63.5796C57.9063 62.4115 57.7088 61.2763 57.5312 60.1222C57.37 59.074 57.4107 60.9586 57.4107 61.2196C57.4107 63.6533 56.9298 58.7114 57.0935 58.7709C57.536 58.9318 57.691 60.7918 57.8675 61.2196C57.9945 61.5276 58.0958 62.0396 58.0958 61.4607C58.0958 60.9199 57.8436 59.7586 58.5463 59.5829C58.9946 59.4708 59.453 59.2367 59.7579 58.9041C60.0209 58.6173 60.4526 58.4473 60.6524 58.0921C60.9771 57.5149 60.2002 57.639 59.8975 57.8067C58.9663 58.3224 58.1161 59.1084 57.2585 59.7352C56.9544 59.9574 55.8121 60.5035 55.8121 60.9913C55.8121 61.1378 56.0053 60.7695 56.1166 60.6741C56.5284 60.3211 56.9741 60.006 57.4361 59.7225C58.0208 59.3637 59.3185 58.8858 59.574 58.1619C59.7189 57.7513 58.772 58.6217 58.6795 58.6884C57.9228 59.2342 57.0109 59.5285 56.2625 60.0524C56.1737 60.1145 55.4104 60.5422 55.793 60.2427C56.5627 59.6403 57.5731 59.2078 58.5145 58.9485C58.8834 58.847 59.0762 58.7885 59.3266 58.4918C59.4914 58.2964 59.7607 58.331 59.8975 58.0985C60.0631 57.817 58.951 58.6366 58.8698 58.6948C57.8759 59.4069 56.8204 60.1223 55.774 60.7502C55.3137 61.0264 55.4942 60.5626 55.6154 60.3061C55.854 59.8013 56.1946 59.4127 56.6304 59.0691C57.1646 58.6479 57.9006 58.0044 58.5463 57.7622C58.8131 57.6622 59.2144 57.3818 59.409 57.1723C59.6147 56.9507 59.782 56.5665 59.5803 57.0708" stroke="#131313" stroke-linecap="round"/>
<path d="M59.0613 14.425C58.8379 14.4757 58.6126 14.4498 58.3923 14.4908C58.3609 14.4966 58.3267 14.4933 58.2949 14.4933C58.2487 14.4933 58.2125 14.5141 58.1678 14.5218C58.0379 14.5442 57.8966 14.5449 57.765 14.5496C57.679 14.5527 57.5993 14.573 57.5133 14.573C57.4899 14.573 57.3803 14.5645 57.4305 14.6185C57.5056 14.6995 57.605 14.7096 57.7068 14.7096C57.8595 14.7096 58.0101 14.7921 58.1596 14.8348C58.2368 14.8569 58.3253 14.8803 58.4062 14.8803C58.4561 14.8803 58.5007 14.8805 58.5434 14.91C58.6187 14.9622 58.4897 14.96 58.458 14.96C58.4172 14.96 58.3763 14.96 58.3354 14.96C58.2304 14.96 58.1254 14.96 58.0205 14.96C57.9404 14.96 57.8603 14.96 57.7802 14.96C57.7038 14.96 57.6275 14.96 57.5512 14.96C57.5221 14.96 57.4931 14.96 57.464 14.96C57.4361 14.96 57.5196 14.96 57.5474 14.96C57.758 14.96 57.9686 14.96 58.1792 14.96C58.2469 14.96 58.3155 14.9942 58.3872 14.9942C58.4069 14.9942 58.427 14.993 58.4467 14.9942C58.4649 14.9952 58.508 15.0283 58.4897 15.0283C58.4157 15.0283 58.3482 15.0055 58.2734 15.0055C58.2097 15.0055 58.1461 15.0055 58.0824 15.0055C58.029 15.0055 57.9242 14.9865 57.8775 15.0175C57.8352 15.0458 57.7955 15.0397 57.746 15.0397C57.7025 15.0397 57.5183 15.0611 57.5019 15.0283" stroke="#131313" stroke-linecap="round"/>
<path d="M57.9283 14.7497C57.9283 14.0246 57.9283 13.2994 57.9283 12.5743C57.9283 12.1644 58.0258 11.7699 58.0636 11.3629C58.0838 11.1446 58.0837 10.9288 58.0837 10.7097" stroke="#131313" stroke-linecap="round"/>
<path d="M58.5758 13.9987C58.4824 13.838 58.4774 13.6617 58.4736 13.4793C58.4683 13.2219 58.4636 12.9606 58.4837 12.7038C58.5091 12.3797 58.5719 12.0396 58.6319 11.7197C58.6602 11.5685 58.7088 11.4278 58.7297 11.2708C58.7594 11.0486 58.6211 11.7062 58.5815 11.9269C58.5437 12.138 58.5235 12.3516 58.4866 12.5628C58.4626 12.6999 58.3829 12.5483 58.3542 12.488C58.1904 12.1442 58.107 11.7358 58.0233 11.3672C57.894 10.7977 57.8243 10.2178 57.7758 9.63637C57.7466 9.28535 57.7212 8.92996 57.7212 8.57745C57.7212 8.23695 57.7212 9.25846 57.7212 9.59896C57.7212 10.3642 57.756 11.137 57.701 11.901C57.6982 11.9395 57.6744 12.0409 57.655 12.0074C57.5217 11.7772 57.5472 11.4226 57.5428 11.1744C57.5231 10.0735 57.5023 8.96537 57.7068 7.87966C57.7477 7.6625 57.8258 7.13354 57.9456 7.62212C58.2591 8.90063 58.4156 10.2251 58.4204 11.5413C58.4207 11.6209 58.4291 11.7018 58.4146 11.7801C58.3998 11.86 58.3774 11.6217 58.3657 11.5413C58.2663 10.8561 58.2453 10.1699 58.2406 9.47811C58.2335 8.45858 58.2391 7.43888 58.2391 6.41933C58.2391 6.41147 58.2391 6.22447 58.2391 6.29415C58.2391 6.6907 58.2284 7.0863 58.2118 7.48256C58.1905 7.98879 58.1865 8.50174 58.1355 9.0062C58.1263 9.09776 58.0895 9.20076 58.0722 9.04073C58.0424 8.76363 58.0578 8.4786 58.0578 8.2005C58.0578 7.52527 58.0549 6.84996 58.0578 6.17474C58.0613 5.36467 58.1231 4.55591 58.1355 3.74613C58.1372 3.63639 58.0795 3.87686 58.0794 3.87705C57.9415 4.28549 57.8778 4.71948 57.7888 5.14028C57.7171 5.47939 57.6598 5.81956 57.5974 6.16035C57.5828 6.24048 57.5734 6.40301 57.5125 6.474C57.47 6.52359 57.4534 6.40992 57.4507 6.39631C57.3814 6.04601 57.347 5.68898 57.3068 5.33451C57.2459 4.79751 57.2291 4.26608 57.2291 3.72599C57.2291 3.56676 57.2291 3.40754 57.2291 3.24832C57.2291 3.2091 57.2118 3.06789 57.2406 3.021C57.2476 3.0097 57.3083 3.37704 57.3097 3.38932C57.3737 3.95148 57.4182 4.51538 57.4737 5.07841C57.4963 5.30714 57.4998 5.56272 57.5658 5.78628C57.6 5.90215 57.6408 5.72082 57.6464 5.69707C57.8493 4.82897 57.8248 3.91228 57.8248 3.02675C57.8248 3.00778 57.8022 2.45989 57.8449 2.45989C57.8744 2.45989 58.0331 2.82482 58.0434 2.84691C58.0634 2.88962 58.2197 3.24254 58.229 3.23106C58.3507 3.08237 58.4108 2.8377 58.4405 2.65268C58.4735 2.44757 58.4463 2.2151 58.4463 2.00812" stroke="#131313" stroke-linecap="round"/>
<path d="M57.6953 3.04402C57.6953 2.76394 57.6953 2.48386 57.6953 2.20379C57.6953 2.03436 58.0683 2.05991 58.1672 2.05991C58.2219 2.05991 58.2765 2.05991 58.3312 2.05991C58.3393 2.05991 58.1457 2.05991 58.0967 2.05991C57.8956 2.05991 57.7014 2.05399 57.5039 2.08437C57.3339 2.11052 57.4818 2.08581 57.5917 2.08581C57.6953 2.08581 57.7989 2.08581 57.9024 2.08581C58.0353 2.08581 58.1681 2.08581 58.301 2.08581C58.5189 2.08581 57.8672 2.03402 57.6492 2.03402C57.6148 2.03402 57.3986 2.01064 57.4176 2.09588C57.4374 2.18492 58.11 2.13761 58.2247 2.13761C58.2886 2.13761 58.4134 2.11396 58.4722 2.14336C58.5939 2.20419 58.5499 2.4552 58.5499 2.55197" stroke="#131313" stroke-linecap="round"/>
<path d="M58.0319 7.83506C57.8021 7.38991 57.5674 6.94962 57.3787 6.48839C57.3425 6.39972 57.2984 6.25265 57.232 6.18625C57.222 6.17627 57.2775 6.38971 57.2867 6.41645C57.3911 6.72115 57.518 7.01799 57.6262 7.32143C57.756 7.68541 57.8322 8.1237 58.0319 8.4566" stroke="#131313" stroke-linecap="round"/>
<path d="M100.845 15.0192C100.845 15.1754 100.887 15.3973 100.843 15.5488C100.806 15.6814 100.436 15.8642 100.329 15.9088C100.159 15.9798 100.133 15.9943 100.297 16.0136C100.411 16.0271 100.436 16.5355 100.384 16.6232C100.288 16.7882 100.165 16.7255 100.024 16.787C99.9905 16.8018 99.9082 16.8742 99.8662 16.848C99.8114 16.8137 99.9086 16.7138 99.9386 16.6975C100.014 16.6565 100.013 16.5894 100.024 16.5146C100.033 16.4607 100.118 16.416 100.148 16.3679C100.218 16.2544 100.22 16.075 100.297 15.9793C100.355 15.9065 100.401 15.7306 100.436 15.6383C100.464 15.5623 100.538 15.5321 100.563 15.4459C100.595 15.3395 100.615 15.4281 100.569 15.4783C100.483 15.5715 100.473 15.5993 100.426 15.705C100.406 15.7495 100.409 15.8188 100.381 15.8555C100.349 15.8966 100.307 15.8826 100.297 15.945C100.278 16.0663 100.116 16.099 100.093 16.2022C100.063 16.3363 99.9132 16.4015 99.8681 16.5279C99.791 16.7437 99.5848 16.8559 99.5423 17.1108" stroke="#131313" stroke-linecap="round"/>
<path d="M101.291 16.6308C101.513 16.0426 101.763 15.4686 102.072 14.9201C102.201 14.6908 102.352 14.4823 102.514 14.2762C102.54 14.243 102.622 14.123 102.571 14.2419C102.286 14.917 101.942 15.5666 101.68 16.2517C101.566 16.5473 101.309 17.0161 101.36 17.3509C101.368 17.4061 101.472 17.3243 101.516 17.2899C101.805 17.0638 102.067 16.797 102.327 16.5393C102.689 16.1822 103.051 15.8278 103.421 15.4802C103.627 15.2871 103.841 15.0131 104.093 14.8744C104.163 14.8362 104.134 14.957 104.128 14.9849C104.05 15.3513 103.788 15.6928 103.615 16.0174C103.249 16.7064 102.379 18.8824 102.651 18.151C102.77 17.8329 103.008 17.5564 103.192 17.2766C103.43 16.9166 103.64 16.5411 103.846 16.1622C103.903 16.0561 104.004 15.9107 104.013 15.7812C104.017 15.7303 103.736 16.0296 103.733 16.0326C103.457 16.3225 103.175 16.6055 102.918 16.9127C102.737 17.1293 102.583 17.3856 102.385 17.5871C102.287 17.6868 102.32 17.2716 102.32 17.2671C102.318 16.8106 102.316 16.3538 102.322 15.8974C102.326 15.5762 102.34 15.2572 102.367 14.9372C102.383 14.7497 102.34 14.9705 102.333 14.9963C102.276 15.2062 102.214 15.4143 102.167 15.6269C102.109 15.8923 102.002 16.2337 102.026 16.5089C102.042 16.6829 102.372 16.4321 102.526 16.3488C103.38 15.8857 104.223 15.3644 105.006 14.7887C105.643 14.32 106.249 13.8083 106.88 13.3313C107.018 13.2276 107.513 12.7338 107.757 12.7522C108.061 12.7752 107.578 14.2627 107.543 14.3638C107.332 14.9776 107.086 15.5799 106.861 16.1888C106.732 16.539 106.688 16.6648 106.568 17.008C106.544 17.0757 106.452 17.4818 106.362 17.5471C106.192 17.6711 106.473 17.1388 106.557 16.9451C106.78 16.4267 107.051 15.93 107.309 15.4287C107.419 15.2144 107.81 14.6115 107.646 14.7887C107.458 14.9925 107.294 15.2006 107.143 15.4345C106.632 16.2263 106.161 17.0534 105.6 17.8119C105.518 17.9231 105.52 17.7666 105.516 17.7014C105.49 17.2074 105.496 16.6944 105.591 16.2079C105.651 15.8971 105.742 15.5658 105.907 15.2916C105.915 15.2777 105.948 15.2426 105.941 15.2573C105.895 15.3575 105.808 15.4551 105.753 15.5488C105.187 16.5084 104.724 17.5459 104.24 18.5491C104.234 18.5612 104.176 18.7217 104.156 18.6215C104.095 18.3061 104.203 17.9211 104.293 17.6271C104.516 16.9053 104.853 16.2193 105.189 15.5449C105.288 15.3463 105.527 15.028 105.543 14.7868C105.545 14.753 105.479 14.8168 105.459 14.8439C105.32 15.0316 105.2 15.2365 105.09 15.4421C105.009 15.5929 104.272 17.2276 104.191 17.2042C104.15 17.1928 104.171 16.9447 104.171 16.9356C104.171 16.6011 104.206 16.3039 104.392 16.0136C104.491 15.8601 105.899 14.365 106.008 14.9049C106.05 15.1157 106.022 15.3506 106.031 15.564C106.045 15.9063 106.082 16.2471 106.124 16.587C106.149 16.7902 106.332 16.365 106.336 16.3584C106.605 15.9108 106.884 15.4624 107.216 15.0573C107.231 15.0385 107.658 14.4927 107.715 14.6991C107.824 15.0977 107.685 15.5462 107.74 15.9526C107.748 16.0195 108.238 15.5294 108.256 15.5145C108.447 15.3509 109.765 14.2874 109.822 14.9734C109.842 15.22 109.814 15.4765 109.78 15.7202C109.767 15.8093 109.753 16.1999 109.658 16.265C109.558 16.3332 109.63 16.0195 109.662 15.9031C109.776 15.4844 110.076 15.1336 110.296 14.7677C110.32 14.728 110.354 14.6913 110.363 14.6458C110.366 14.6264 110.327 14.6639 110.313 14.6782C110.163 14.8361 109.921 15.1569 109.816 15.2973C109.538 15.6691 109.335 15.9566 109.083 16.345C108.989 16.488 108.897 16.6313 108.812 16.7794C108.751 16.8868 108.579 17.1478 108.702 17.1337C108.917 17.1089 109.064 16.8921 109.227 16.7489C109.431 16.5703 109.742 16.2696 109.94 16.0745C110.054 15.9623 110.382 15.6417 110.231 15.6935C110.048 15.7564 109.886 15.9161 109.738 16.0345C109.488 16.2339 109.231 16.4252 108.982 16.6251C108.794 16.7747 108.613 16.9314 108.423 17.0785C108.299 17.1755 108.441 16.9804 108.454 16.9661C108.953 16.4289 109.618 15.9614 109.955 15.2935C109.999 15.2056 110.006 15.1354 109.894 15.1868C109.592 15.3251 109.325 15.5679 109.071 15.7754C108.662 16.1092 108.181 16.4186 107.82 16.806C107.776 16.8532 107.821 16.6755 107.839 16.6136C107.962 16.1903 108.356 15.8645 108.641 15.5488C108.78 15.3939 109.034 15.1886 109.128 14.9925C109.173 14.8981 108.928 15.061 108.841 15.1182C108.379 15.4197 108.041 15.8428 107.76 16.3107C107.751 16.3259 107.726 16.3686 107.741 16.3603C107.804 16.3273 107.858 16.281 107.917 16.2422C108.309 15.9831 108.707 15.7333 109.105 15.484C109.565 15.196 110.024 14.9033 110.488 14.6229C110.701 14.4949 110.687 14.5425 110.687 14.7544C110.687 15.1392 110.687 15.524 110.687 15.9088C110.687 15.9997 110.635 16.3046 110.698 16.3831C110.752 16.4513 111.232 15.9422 111.266 15.9069C111.352 15.8154 112.063 14.8241 112.146 14.8782C112.201 14.9144 112.146 15.1745 112.138 15.2135C112.073 15.5444 111.911 15.8548 111.791 16.1679C111.743 16.2955 111.683 16.4223 111.637 16.5508C111.593 16.6756 111.801 16.3429 111.883 16.2384C112.247 15.7703 112.637 15.3211 112.99 14.8439C113.113 14.6769 113.049 15.3135 113.043 15.3468C112.987 15.643 112.901 15.9325 112.822 16.2231C112.768 16.4218 112.811 16.4513 112.98 16.3184C113.552 15.8687 113.974 15.2481 114.516 14.7639C114.669 14.6262 114.703 14.7144 114.717 14.882C114.746 15.2097 114.561 15.5378 114.409 15.8135C114.32 15.9733 114.229 16.1805 114.106 16.3184C114.046 16.3858 114.049 16.1396 114.049 16.1393C114.032 15.6351 114.381 15.3194 114.637 14.9163C114.694 14.8267 114.698 14.7839 114.698 14.8972C114.698 15.0586 114.695 15.2145 114.662 15.3735C114.66 15.3869 114.574 15.6064 114.655 15.543C114.716 15.4949 114.775 15.4448 114.836 15.3964" stroke="#131313" stroke-linecap="round"/>
<path d="M115.897 14.8981C115.712 14.8727 115.597 14.9659 115.47 15.0883C115.386 15.1701 115.279 15.2043 115.196 15.2785C115.147 15.3218 115.098 15.3198 115.056 15.3814C115.014 15.4416 114.897 15.5128 114.83 15.5466C114.725 15.5987 114.579 15.9134 114.552 16.0345C114.542 16.0783 114.402 16.2394 114.443 16.2278C114.534 16.2025 114.6 16.0805 114.669 16.0143C114.725 15.9602 114.791 15.9358 114.844 15.8802C114.885 15.8365 115.016 15.6807 115.071 15.6807C115.156 15.6807 114.902 16.0459 114.887 16.0735C114.857 16.1299 114.8 16.1978 114.781 16.2575C114.75 16.3579 114.79 16.1607 114.808 16.1359C114.861 16.0628 114.94 16.0244 114.982 15.9394C115.011 15.8827 115.029 15.8231 115.07 15.7726C115.132 15.6955 115.228 15.6233 115.279 15.531C115.345 15.4099 115.494 15.3126 115.561 15.1787" stroke="#131313" stroke-linecap="round"/>
<path d="M138.428 14.2067V19.5355" stroke="#131313" stroke-linecap="round"/>
<path d="M139.026 17.2133C139.052 17.0155 139.036 16.8088 139.036 16.6094C139.036 16.463 139.058 16.3197 139.058 16.175C139.058 16.0127 139.087 15.8244 139.047 15.6677C139.027 15.5866 139.026 15.514 139.026 15.4308" stroke="#131313" stroke-linecap="round"/>
<path d="M138.009 17.3445C138.079 17.2129 138.039 17.0759 138.055 16.9338C138.069 16.8017 138.085 16.6802 138.085 16.5468C138.085 16.4475 138.093 16.3481 138.096 16.2509C138.097 16.2037 138.096 16.1561 138.096 16.1088C138.096 16.0534 138.118 16.0164 138.118 15.9599C138.118 15.8508 138.14 15.735 138.14 15.6252C138.14 15.5122 138.151 15.8511 138.151 15.9642C138.151 16.1151 138.151 16.2659 138.151 16.4168C138.151 16.4212 138.153 16.5851 138.148 16.5851C138.119 16.5851 138.086 16.4733 138.085 16.4478C138.084 16.4076 138.085 16.3671 138.085 16.3269C138.085 16.3044 138.085 16.2819 138.085 16.2595C138.085 16.1924 138.085 16.284 138.085 16.3044C138.085 16.354 138.085 16.4036 138.085 16.4532C138.085 16.4795 138.103 16.605 138.058 16.5887C138.029 16.5779 137.998 16.3929 137.998 16.528C137.998 16.5783 137.987 16.4228 138.009 16.3773C138.028 16.3366 138.019 16.2846 138.019 16.24C138.019 16.0833 138.019 15.9265 138.019 15.7698C138.019 15.7333 138.015 15.6945 138.025 15.6592C138.034 15.6269 138.026 15.5944 138.032 15.562C138.038 15.5284 138.052 15.5046 138.052 15.4691C138.052 15.3907 138.052 15.3123 138.052 15.234" stroke="#131313" stroke-linecap="round"/>
<path d="M138.971 17.9459C138.921 17.7929 138.927 17.6416 138.927 17.4818C138.927 17.4424 138.937 17.4052 138.938 17.3663C138.939 17.3292 138.964 17.3086 138.97 17.274C138.981 17.2122 139.012 17.1494 139.015 17.0869C139.024 16.8624 139.026 16.6353 139.026 16.4089C139.026 16.3396 139.026 16.2704 139.026 16.2011C139.026 16.1776 139.026 16.1541 139.026 16.1307C139.026 16.0976 139.047 16.074 139.047 16.0432C139.047 15.9877 139.046 15.9321 139.047 15.8767C139.048 15.8414 139.052 15.7777 139.069 15.7467C139.086 15.7173 139.091 15.6405 139.091 15.6058C139.091 15.5584 139.091 15.511 139.091 15.4636C139.091 15.3513 139.102 15.2384 139.102 15.1246" stroke="#131313" stroke-linecap="round"/>
</svg>
