<svg id="visual" viewBox="0 0 1366 768" width="1366" height="768" xmlns="http://www.w3.org/2000/svg" xmlns:xlink="http://www.w3.org/1999/xlink" version="1.1"><path d="M0 116L113.8 108.3C227.7 100.7 455.3 85.3 683 104.5C910.7 123.7 1138.3 177.3 1252.2 204.2L1366 231L1366 0L1252.2 0C1138.3 0 910.7 0 683 0C455.3 0 227.7 0 113.8 0L0 0Z" fill="#fec879"></path><path d="M0 162L113.8 153.2C227.7 144.3 455.3 126.7 683 143.3C910.7 160 1138.3 211 1252.2 236.5L1366 262L1366 229L1252.2 202.2C1138.3 175.3 910.7 121.7 683 102.5C455.3 83.3 227.7 98.7 113.8 106.3L0 114Z" fill="#fec36e"></path><path d="M0 270L113.8 252C227.7 234 455.3 198 683 200.5C910.7 203 1138.3 244 1252.2 264.5L1366 285L1366 260L1252.2 234.5C1138.3 209 910.7 158 683 141.3C455.3 124.7 227.7 142.3 113.8 151.2L0 160Z" fill="#fdbf64"></path><path d="M0 285L113.8 268.3C227.7 251.7 455.3 218.3 683 224.8C910.7 231.3 1138.3 277.7 1252.2 300.8L1366 324L1366 283L1252.2 262.5C1138.3 242 910.7 201 683 198.5C455.3 196 227.7 232 113.8 250L0 268Z" fill="#fdba59"></path><path d="M0 316L113.8 298C227.7 280 455.3 244 683 253C910.7 262 1138.3 316 1252.2 343L1366 370L1366 322L1252.2 298.8C1138.3 275.7 910.7 229.3 683 222.8C455.3 216.3 227.7 249.7 113.8 266.3L0 283Z" fill="#fcb54e"></path><path d="M0 362L113.8 342.8C227.7 323.7 455.3 285.3 683 296.8C910.7 308.3 1138.3 369.7 1252.2 400.3L1366 431L1366 368L1252.2 341C1138.3 314 910.7 260 683 251C455.3 242 227.7 278 113.8 296L0 314Z" fill="#fbb042"></path><path d="M0 423L113.8 412.8C227.7 402.7 455.3 382.3 683 402.8C910.7 423.3 1138.3 484.7 1252.2 515.3L1366 546L1366 429L1252.2 398.3C1138.3 367.7 910.7 306.3 683 294.8C455.3 283.3 227.7 321.7 113.8 340.8L0 360Z" fill="#f5aa3a"></path><path d="M0 469L113.8 457.5C227.7 446 455.3 423 683 439.7C910.7 456.3 1138.3 512.7 1252.2 540.8L1366 569L1366 544L1252.2 513.3C1138.3 482.7 910.7 421.3 683 400.8C455.3 380.3 227.7 400.7 113.8 410.8L0 421Z" fill="#eaa136"></path><path d="M0 638L113.8 635.5C227.7 633 455.3 628 683 630.7C910.7 633.3 1138.3 643.7 1252.2 648.8L1366 654L1366 567L1252.2 538.8C1138.3 510.7 910.7 454.3 683 437.7C455.3 421 227.7 444 113.8 455.5L0 467Z" fill="#de9933"></path><path d="M0 708L113.8 701.5C227.7 695 455.3 682 683 680.7C910.7 679.3 1138.3 689.7 1252.2 694.8L1366 700L1366 652L1252.2 646.8C1138.3 641.7 910.7 631.3 683 628.7C455.3 626 227.7 631 113.8 633.5L0 636Z" fill="#d3902f"></path><path d="M0 746L113.8 742.2C227.7 738.3 455.3 730.7 683 726.8C910.7 723 1138.3 723 1252.2 723L1366 723L1366 698L1252.2 692.8C1138.3 687.7 910.7 677.3 683 678.7C455.3 680 227.7 693 113.8 699.5L0 706Z" fill="#c8882c"></path><path d="M0 769L113.8 769C227.7 769 455.3 769 683 769C910.7 769 1138.3 769 1252.2 769L1366 769L1366 721L1252.2 721C1138.3 721 910.7 721 683 724.8C455.3 728.7 227.7 736.3 113.8 740.2L0 744Z" fill="#bd8028"></path></svg>