<svg id="visual" viewBox="0 0 900 600" width="900" height="600" xmlns="http://www.w3.org/2000/svg" xmlns:xlink="http://www.w3.org/1999/xlink" version="1.1"><rect x="0" y="0" width="900" height="600" fill="#131313"></rect><path d="M89 600L84 580C79 560 69 520 61.3 480C53.7 440 48.3 400 51.8 360C55.3 320 67.7 280 73.7 240C79.7 200 79.3 160 76 120C72.7 80 66.3 40 63.2 20L60 0L900 0L900 20C900 40 900 80 900 120C900 160 900 200 900 240C900 280 900 320 900 360C900 400 900 440 900 480C900 520 900 560 900 580L900 600Z" fill="#4639ff"></path><path d="M121 600L121 580C121 560 121 520 122.2 480C123.3 440 125.7 400 132.7 360C139.7 320 151.3 280 149.8 240C148.3 200 133.7 160 134.3 120C135 80 151 40 159 20L167 0L900 0L900 20C900 40 900 80 900 120C900 160 900 200 900 240C900 280 900 320 900 360C900 400 900 440 900 480C900 520 900 560 900 580L900 600Z" fill="#4536e7"></path><path d="M211 600L205.5 580C200 560 189 520 189.8 480C190.7 440 203.3 400 209.5 360C215.7 320 215.3 280 214.8 240C214.3 200 213.7 160 210.8 120C208 80 203 40 200.5 20L198 0L900 0L900 20C900 40 900 80 900 120C900 160 900 200 900 240C900 280 900 320 900 360C900 400 900 440 900 480C900 520 900 560 900 580L900 600Z" fill="#4333cf"></path><path d="M275 600L270 580C265 560 255 520 257.2 480C259.3 440 273.7 400 279.3 360C285 320 282 280 278.2 240C274.3 200 269.7 160 273.3 120C277 80 289 40 295 20L301 0L900 0L900 20C900 40 900 80 900 120C900 160 900 200 900 240C900 280 900 320 900 360C900 400 900 440 900 480C900 520 900 560 900 580L900 600Z" fill="#4030b7"></path><path d="M366 600L357.5 580C349 560 332 520 333 480C334 440 353 400 356.7 360C360.3 320 348.7 280 344.3 240C340 200 343 160 343.8 120C344.7 80 343.3 40 342.7 20L342 0L900 0L900 20C900 40 900 80 900 120C900 160 900 200 900 240C900 280 900 320 900 360C900 400 900 440 900 480C900 520 900 560 900 580L900 600Z" fill="#3d2da0"></path><path d="M382 600L385.3 580C388.7 560 395.3 520 405.8 480C416.3 440 430.7 400 431.2 360C431.7 320 418.3 280 416.8 240C415.3 200 425.7 160 431 120C436.3 80 436.7 40 436.8 20L437 0L900 0L900 20C900 40 900 80 900 120C900 160 900 200 900 240C900 280 900 320 900 360C900 400 900 440 900 480C900 520 900 560 900 580L900 600Z" fill="#392a8a"></path><path d="M465 600L473.8 580C482.7 560 500.3 520 499.2 480C498 440 478 400 470 360C462 320 466 280 465 240C464 200 458 160 464.8 120C471.7 80 491.3 40 501.2 20L511 0L900 0L900 20C900 40 900 80 900 120C900 160 900 200 900 240C900 280 900 320 900 360C900 400 900 440 900 480C900 520 900 560 900 580L900 600Z" fill="#352674"></path><path d="M549 600L549 580C549 560 549 520 544.5 480C540 440 531 400 537.2 360C543.3 320 564.7 280 564.8 240C565 200 544 160 535.8 120C527.7 80 532.3 40 534.7 20L537 0L900 0L900 20C900 40 900 80 900 120C900 160 900 200 900 240C900 280 900 320 900 360C900 400 900 440 900 480C900 520 900 560 900 580L900 600Z" fill="#2f235f"></path><path d="M614 600L616.3 580C618.7 560 623.3 520 625.3 480C627.3 440 626.7 400 623.2 360C619.7 320 613.3 280 609.3 240C605.3 200 603.7 160 605.8 120C608 80 614 40 617 20L620 0L900 0L900 20C900 40 900 80 900 120C900 160 900 200 900 240C900 280 900 320 900 360C900 400 900 440 900 480C900 520 900 560 900 580L900 600Z" fill="#2a1f4b"></path><path d="M673 600L674.2 580C675.3 560 677.7 520 678.7 480C679.7 440 679.3 400 686.7 360C694 320 709 280 710.2 240C711.3 200 698.7 160 694.2 120C689.7 80 693.3 40 695.2 20L697 0L900 0L900 20C900 40 900 80 900 120C900 160 900 200 900 240C900 280 900 320 900 360C900 400 900 440 900 480C900 520 900 560 900 580L900 600Z" fill="#231b37"></path><path d="M788 600L786 580C784 560 780 520 775.2 480C770.3 440 764.7 400 763.8 360C763 320 767 280 767.5 240C768 200 765 160 768.7 120C772.3 80 782.7 40 787.8 20L793 0L900 0L900 20C900 40 900 80 900 120C900 160 900 200 900 240C900 280 900 320 900 360C900 400 900 440 900 480C900 520 900 560 900 580L900 600Z" fill="#1c1725"></path><path d="M811 600L818.3 580C825.7 560 840.3 520 848 480C855.7 440 856.3 400 855.7 360C855 320 853 280 844 240C835 200 819 160 815.2 120C811.3 80 819.7 40 823.8 20L828 0L900 0L900 20C900 40 900 80 900 120C900 160 900 200 900 240C900 280 900 320 900 360C900 400 900 440 900 480C900 520 900 560 900 580L900 600Z" fill="#131313"></path></svg>