<svg id="visual" viewBox="0 0 900 600" width="900" height="600" xmlns="http://www.w3.org/2000/svg" xmlns:xlink="http://www.w3.org/1999/xlink" version="1.1"><rect x="0" y="0" width="900" height="600" fill="#131313"></rect><path d="M897 0L885 50C873 100 849 200 842 300C835 400 845 500 850 550L855 600L0 600L0 550C0 500 0 400 0 300C0 200 0 100 0 50L0 0Z" fill="#4639ff"></path><path d="M788 0L784.3 50C780.7 100 773.3 200 778.3 300C783.3 400 800.7 500 809.3 550L818 600L0 600L0 550C0 500 0 400 0 300C0 200 0 100 0 50L0 0Z" fill="#4536e7"></path><path d="M713 0L709.2 50C705.3 100 697.7 200 686.7 300C675.7 400 661.3 500 654.2 550L647 600L0 600L0 550C0 500 0 400 0 300C0 200 0 100 0 50L0 0Z" fill="#4333cf"></path><path d="M657 0L658.5 50C660 100 663 200 665.8 300C668.7 400 671.3 500 672.7 550L674 600L0 600L0 550C0 500 0 400 0 300C0 200 0 100 0 50L0 0Z" fill="#4030b7"></path><path d="M620 0L607.3 50C594.7 100 569.3 200 554 300C538.7 400 533.3 500 530.7 550L528 600L0 600L0 550C0 500 0 400 0 300C0 200 0 100 0 50L0 0Z" fill="#3d2da0"></path><path d="M535 0L516.8 50C498.7 100 462.3 200 454.3 300C446.3 400 466.7 500 476.8 550L487 600L0 600L0 550C0 500 0 400 0 300C0 200 0 100 0 50L0 0Z" fill="#392a8a"></path><path d="M382 0L397.3 50C412.7 100 443.3 200 437.8 300C432.3 400 390.7 500 369.8 550L349 600L0 600L0 550C0 500 0 400 0 300C0 200 0 100 0 50L0 0Z" fill="#352674"></path><path d="M375 0L374.8 50C374.7 100 374.3 200 378 300C381.7 400 389.3 500 393.2 550L397 600L0 600L0 550C0 500 0 400 0 300C0 200 0 100 0 50L0 0Z" fill="#2f235f"></path><path d="M235 0L234.2 50C233.3 100 231.7 200 242.5 300C253.3 400 276.7 500 288.3 550L300 600L0 600L0 550C0 500 0 400 0 300C0 200 0 100 0 50L0 0Z" fill="#2a1f4b"></path><path d="M167 0L164.2 50C161.3 100 155.7 200 154.3 300C153 400 156 500 157.5 550L159 600L0 600L0 550C0 500 0 400 0 300C0 200 0 100 0 50L0 0Z" fill="#231b37"></path><path d="M121 0L124.5 50C128 100 135 200 142.5 300C150 400 158 500 162 550L166 600L0 600L0 550C0 500 0 400 0 300C0 200 0 100 0 50L0 0Z" fill="#1c1725"></path><path d="M109 0L103.3 50C97.7 100 86.3 200 70.7 300C55 400 35 500 25 550L15 600L0 600L0 550C0 500 0 400 0 300C0 200 0 100 0 50L0 0Z" fill="#131313"></path></svg>