<svg id="visual" viewBox="0 0 900 600" width="900" height="600" xmlns="http://www.w3.org/2000/svg" xmlns:xlink="http://www.w3.org/1999/xlink" version="1.1"><path d="M0 25L75 20.8C150 16.7 300 8.3 450 12.3C600 16.3 750 32.7 825 40.8L900 49L900 0L825 0C750 0 600 0 450 0C300 0 150 0 75 0L0 0Z" fill="#4639ff"></path><path d="M0 43L75 50C150 57 300 71 450 82C600 93 750 101 825 105L900 109L900 47L825 39.2C750 31.3 600 15.7 450 11.7C300 7.7 150 15.3 75 19.2L0 23Z" fill="#4536e7"></path><path d="M0 61L75 65C150 69 300 77 450 85C600 93 750 101 825 105L900 109L900 107L825 103C750 99 600 91 450 80C300 69 150 55 75 48L0 41Z" fill="#4333cf"></path><path d="M0 103L75 107C150 111 300 119 450 123C600 127 750 127 825 127L900 127L900 107L825 103C750 99 600 91 450 83C300 75 150 67 75 63L0 59Z" fill="#4030b7"></path><path d="M0 145L75 151C150 157 300 169 450 178C600 187 750 193 825 196L900 199L900 125L825 125C750 125 600 125 450 121C300 117 150 109 75 105L0 101Z" fill="#3d2da0"></path><path d="M0 253L75 263C150 273 300 293 450 305C600 317 750 321 825 323L900 325L900 197L825 194C750 191 600 185 450 176C300 167 150 155 75 149L0 143Z" fill="#392a8a"></path><path d="M0 295L75 301C150 307 300 319 450 331C600 343 750 355 825 361L900 367L900 323L825 321C750 319 600 315 450 303C300 291 150 271 75 261L0 251Z" fill="#352674"></path><path d="M0 313L75 323C150 333 300 353 450 363C600 373 750 373 825 373L900 373L900 365L825 359C750 353 600 341 450 329C300 317 150 305 75 299L0 293Z" fill="#2f235f"></path><path d="M0 373L75 381C150 389 300 405 450 413C600 421 750 421 825 421L900 421L900 371L825 371C750 371 600 371 450 361C300 351 150 331 75 321L0 311Z" fill="#2a1f4b"></path><path d="M0 565L75 546C150 527 300 489 450 489C600 489 750 527 825 546L900 565L900 419L825 419C750 419 600 419 450 411C300 403 150 387 75 379L0 371Z" fill="#231b37"></path><path d="M0 589L75 591C150 593 300 597 450 595C600 593 750 585 825 581L900 577L900 563L825 544C750 525 600 487 450 487C300 487 150 525 75 544L0 563Z" fill="#1c1725"></path><path d="M0 601L75 601C150 601 300 601 450 601C600 601 750 601 825 601L900 601L900 575L825 579C750 583 600 591 450 593C300 595 150 591 75 589L0 587Z" fill="#131313"></path></svg>