<svg id="visual" viewBox="0 0 200 50" width="200" height="50" xmlns="http://www.w3.org/2000/svg" xmlns:xlink="http://www.w3.org/1999/xlink" version="1.1"><path d="M159 50L161 45.8C163 41.7 167 33.3 171.7 25C176.3 16.7 181.7 8.3 184.3 4.2L187 0L200 0L200 4.2C200 8.3 200 16.7 200 25C200 33.3 200 41.7 200 45.8L200 50Z" fill="#715df2"></path><path d="M153 50L152 45.8C151 41.7 149 33.3 149 25C149 16.7 151 8.3 152 4.2L153 0L188 0L185.3 4.2C182.7 8.3 177.3 16.7 172.7 25C168 33.3 164 41.7 162 45.8L160 50Z" fill="#6a58f4"></path><path d="M143 50L138.7 45.8C134.3 41.7 125.7 33.3 117.7 25C109.7 16.7 102.3 8.3 98.7 4.2L95 0L154 0L153 4.2C152 8.3 150 16.7 150 25C150 33.3 152 41.7 153 45.8L154 50Z" fill="#6153f5"></path><path d="M55 50L51.3 45.8C47.7 41.7 40.3 33.3 38.7 25C37 16.7 41 8.3 43 4.2L45 0L96 0L99.7 4.2C103.3 8.3 110.7 16.7 118.7 25C126.7 33.3 135.3 41.7 139.7 45.8L144 50Z" fill="#584ff7"></path><path d="M17 50L15.3 45.8C13.7 41.7 10.3 33.3 10.7 25C11 16.7 15 8.3 17 4.2L19 0L46 0L44 4.2C42 8.3 38 16.7 39.7 25C41.3 33.3 48.7 41.7 52.3 45.8L56 50Z" fill="#4e4af8"></path><path d="M0 50L0 45.8C0 41.7 0 33.3 0 25C0 16.7 0 8.3 0 4.2L0 0L20 0L18 4.2C16 8.3 12 16.7 11.7 25C11.3 33.3 14.7 41.7 16.3 45.8L18 50Z" fill="#4245fa"></path></svg>