<svg id="visual" viewBox="0 0 900 600" width="900" height="600" xmlns="http://www.w3.org/2000/svg" xmlns:xlink="http://www.w3.org/1999/xlink" version="1.1"><path d="M0 13L50 16C100 19 200 25 300 26C400 27 500 23 600 24C700 25 800 31 850 34L900 37L900 0L850 0C800 0 700 0 600 0C500 0 400 0 300 0C200 0 100 0 50 0L0 0Z" fill="#131331"></path><path d="M0 79L50 80C100 81 200 83 300 82C400 81 500 77 600 79C700 81 800 89 850 93L900 97L900 35L850 32C800 29 700 23 600 22C500 21 400 25 300 24C200 23 100 17 50 14L0 11Z" fill="#14132e"></path><path d="M0 139L50 136C100 133 200 127 300 125C400 123 500 125 600 130C700 135 800 143 850 147L900 151L900 95L850 91C800 87 700 79 600 77C500 75 400 79 300 80C200 81 100 79 50 78L0 77Z" fill="#14132b"></path><path d="M0 151L50 152C100 153 200 155 300 157C400 159 500 161 600 166C700 171 800 179 850 183L900 187L900 149L850 145C800 141 700 133 600 128C500 123 400 121 300 123C200 125 100 131 50 134L0 137Z" fill="#151329"></path><path d="M0 187L50 185C100 183 200 179 300 177C400 175 500 175 600 181C700 187 800 199 850 205L900 211L900 185L850 181C800 177 700 169 600 164C500 159 400 157 300 155C200 153 100 151 50 150L0 149Z" fill="#151326"></path><path d="M0 241L50 240C100 239 200 237 300 236C400 235 500 235 600 235C700 235 800 235 850 235L900 235L900 209L850 203C800 197 700 185 600 179C500 173 400 173 300 175C200 177 100 181 50 183L0 185Z" fill="#151323"></path><path d="M0 271L50 272C100 273 200 275 300 277C400 279 500 281 600 277C700 273 800 263 850 258L900 253L900 233L850 233C800 233 700 233 600 233C500 233 400 233 300 234C200 235 100 237 50 238L0 239Z" fill="#151321"></path><path d="M0 367L50 373C100 379 200 391 300 405C400 419 500 435 600 424C700 413 800 375 850 356L900 337L900 251L850 256C800 261 700 271 600 275C500 279 400 277 300 275C200 273 100 271 50 270L0 269Z" fill="#15131e"></path><path d="M0 475L50 478C100 481 200 487 300 499C400 511 500 529 600 532C700 535 800 523 850 517L900 511L900 335L850 354C800 373 700 411 600 422C500 433 400 417 300 403C200 389 100 377 50 371L0 365Z" fill="#15131b"></path><path d="M0 487L50 493C100 499 200 511 300 524C400 537 500 551 600 551C700 551 800 537 850 530L900 523L900 509L850 515C800 521 700 533 600 530C500 527 400 509 300 497C200 485 100 479 50 476L0 473Z" fill="#141319"></path><path d="M0 547L50 548C100 549 200 551 300 557C400 563 500 573 600 578C700 583 800 583 850 583L900 583L900 521L850 528C800 535 700 549 600 549C500 549 400 535 300 522C200 509 100 497 50 491L0 485Z" fill="#141316"></path><path d="M0 601L50 601C100 601 200 601 300 601C400 601 500 601 600 601C700 601 800 601 850 601L900 601L900 581L850 581C800 581 700 581 600 576C500 571 400 561 300 555C200 549 100 547 50 546L0 545Z" fill="#131313"></path></svg>